<?xml version="1.0" encoding="UTF-8" standalone="no"?>
<svg
   xmlns:dc="http://purl.org/dc/elements/1.1/"
   xmlns:cc="http://creativecommons.org/ns#"
   xmlns:rdf="http://www.w3.org/1999/02/22-rdf-syntax-ns#"
   xmlns:svg="http://www.w3.org/2000/svg"
   xmlns="http://www.w3.org/2000/svg"
   id="svg4765"
   version="1.1"
   viewBox="0 0 68.262499 68.2625"
   height="258"
   width="258">
  <defs
     id="defs4759" />
  <metadata
     id="metadata4762">
    <rdf:RDF>
      <cc:Work
         rdf:about="">
        <dc:format>image/svg+xml</dc:format>
        <dc:type
           rdf:resource="http://purl.org/dc/dcmitype/StillImage" />
        <dc:title></dc:title>
      </cc:Work>
    </rdf:RDF>
  </metadata>
  <g
     transform="translate(0,-228.73749)"
     id="layer1">
    <g
       transform="translate(-149.6845,161.60881)"
       id="g5373">
      <circle
         style="opacity:1;fill:#5a03cb;fill-opacity:1;fill-rule:evenodd;stroke:none;stroke-width:0.66499996;stroke-miterlimit:4;stroke-dasharray:none;stroke-dashoffset:0;stroke-opacity:1"
         id="path4656"
         cx="183.81575"
         cy="101.25993"
         r="33.866665" />
      <g
         id="g5367"
         transform="translate(2.6225294,-8.1449264e-6)">
        <path
           id="path4610"
           d="m 172.82461,101.14398 0.0668,19.2434 c -0.0177,1.21686 0.91122,1.89379 1.76494,2.41352 l 10.26219,0.0587 c 9.83905,-0.88935 14.38279,-5.31359 14.35543,-15.26402 -1.38292,-12.156785 -10.75088,-12.418558 -13.49294,-13.165549 -0.68746,1.995652 -2.71694,3.031058 -2.86586,3.103244 2.08142,0.269861 8.51074,1.759097 8.94821,10.409275 -0.1354,6.7736 -2.83569,10.64726 -9.26386,11.91501 -1.46999,-0.0445 -2.97239,-0.3766 -3.3733,-1.84657 l -0.0277,-18.608432 c -2.23841,0.691262 -3.93901,0.664912 -6.3267,-0.05397 z"
           style="fill:#ffffff;fill-opacity:1;stroke:#fffdfd;stroke-width:0.26458332px;stroke-linecap:butt;stroke-linejoin:miter;stroke-opacity:0.9800664" />
        <ellipse
           ry="7.7034998"
           rx="7.7035689"
           cy="87.811745"
           cx="176.01347"
           id="path4636"
           style="opacity:1;fill:#ffffff;fill-opacity:1;fill-rule:evenodd;stroke:#ffffff;stroke-width:0.66499996;stroke-miterlimit:4;stroke-dasharray:none;stroke-dashoffset:0;stroke-opacity:1" />
      </g>
    </g>
  </g>
</svg>
